<mxfile host="app.diagrams.net" modified="2024-02-16T13:23:39.455Z" agent="Mozilla/5.0 (Macintosh; Intel Mac OS X 10.15; rv:122.0) Gecko/20100101 Firefox/122.0" version="21.3.3" etag="EsKTBxFKDDrAc_PbeEUM" type="github">
  <diagram name="Page-1" id="90tNLDdnf-uNoNLMbz4T">
    <mxGraphModel>
      <root>
        <mxCell id="0" />
        <mxCell id="1" parent="0" />
      </root>
    </mxGraphModel>
  </diagram>
</mxfile>
